<svg xmlns="http://www.w3.org/2000/svg" viewBox="0 0 100 100">
  <defs>
    <linearGradient id="grad" x1="0%" y1="0%" x2="100%" y2="100%">
      <stop offset="0%" style="stop-color:#047857;stop-opacity:1" />
      <stop offset="100%" style="stop-color:#059669;stop-opacity:1" />
    </linearGradient>
  </defs>
  
  <!-- Background circle -->
  <circle cx="50" cy="50" r="48" fill="url(#grad)"/>
  
  <!-- Mosque dome -->
  <path d="M 50 25 Q 35 35 35 45 L 35 55 L 65 55 L 65 45 Q 65 35 50 25 Z" fill="white"/>
  
  <!-- Crescent moon on top -->
  <path d="M 48 20 Q 48 15 52 15 Q 48 15 48 20 Z" fill="#FCD34D"/>
  
  <!-- Minaret left -->
  <rect x="30" y="55" width="8" height="20" fill="white"/>
  <rect x="30" y="50" width="8" height="3" fill="#FCD34D"/>
  
  <!-- Minaret right -->
  <rect x="62" y="55" width="8" height="20" fill="white"/>
  <rect x="62" y="50" width="8" height="3" fill="#FCD34D"/>
  
  <!-- Main building -->
  <rect x="38" y="55" width="24" height="20" fill="white"/>
  
  <!-- Door -->
  <path d="M 46 65 L 46 75 L 54 75 L 54 65 Q 50 62 46 65 Z" fill="#047857"/>
</svg>
